<svg width="110" height="32" viewBox="0 0 110 32" fill="none" xmlns="http://www.w3.org/2000/svg">
  <rect width="32" height="32" rx="8" fill="#5C6AC4"/>
  <path d="M8 22V10h4l5 9V10h4v12h-4l-5-9v9H8z" fill="white"/>
  <path d="M44 10h3l6 12h-3.5l-1-2.5h-6l-1 2.5H39l5-12zm2.5 3.5l-2 5h4l-2-5z" fill="#202223"/>
  <path d="M54 16c0-3.3 2.7-6 6-6s6 2.7 6 6-2.7 6-6 6-6-2.7-6-6zm3 0c0 1.7 1.3 3 3 3s3-1.3 3-3-1.3-3-3-3-3 1.3-3 3z" fill="#202223"/>
  <path d="M68 10h3l3.5 8 3.5-8h3l-5.5 12h-2l-5.5-12z" fill="#202223"/>
  <path d="M82 10h3l6 12h-3.5l-1-2.5h-6l-1 2.5H77l5-12zm2.5 3.5l-2 5h4l-2-5z" fill="#202223"/>
</svg>